<svg viewBox="0 0 24 24" fill="none" xmlns="http://www.w3.org/2000/svg">
<path fill-rule="evenodd" clip-rule="evenodd" d="M9.96935 0.0311467C7.26342 0.330799 4.93571 1.45986 3.09401 3.36608C1.72359 4.78456 0.805441 6.42324 0.327265 8.30426C0.0675984 9.32575 -0.00129571 9.90999 1.83483e-05 11.0799C0.00133241 12.2389 0.0658151 12.7816 0.323511 13.8019C1.40564 18.0862 4.99724 21.3199 9.4548 22.023C10.2057 22.1414 11.8925 22.141 12.6209 22.0222C13.241 21.921 13.9708 21.7477 14.4194 21.5951L14.7481 21.4834L14.9264 21.7725C15.1663 22.1615 15.8095 22.8207 16.2388 23.1174C18.7207 24.8332 22.1314 23.9585 23.4666 21.2638C23.6117 20.9709 23.7762 20.5446 23.8468 20.2783C23.9571 19.8625 23.9712 19.7234 23.9702 19.0581C23.9692 18.4015 23.9538 18.2499 23.8478 17.8517C23.6995 17.2948 23.4313 16.7116 23.1097 16.2464C22.813 15.8171 22.1538 15.1739 21.7646 14.9339L21.4753 14.7555L21.5677 14.4899C21.718 14.058 21.9301 13.143 22.0148 12.5609C22.1129 11.8871 22.125 10.3323 22.0372 9.69543C21.5178 5.93154 19.2699 2.76251 15.9697 1.14195C14.8803 0.606985 13.7817 0.261904 12.6439 0.0973189C12.0064 0.0050533 10.5338 -0.0313649 9.96935 0.0311467ZM11.9941 0.9676C14.7427 1.24022 17.2542 2.60243 18.9598 4.7457C21.0002 7.30966 21.6829 10.6824 20.7933 13.8019C20.6241 14.3949 20.6693 14.369 20.0594 14.2234C19.4996 14.0898 18.477 14.1073 17.8971 14.2603C16.5106 14.6262 15.511 15.3856 14.7255 16.6698C14.6756 16.7513 14.6441 16.7321 14.3329 16.43C13.4256 15.549 12.7771 14.4446 12.4506 13.2242L12.3462 12.8343L12.5401 12.6404L12.734 12.4465L14.2966 12.7139C15.9781 13.0015 16.442 13.0359 16.9404 12.9097C18.0179 12.637 18.892 11.7086 19.0982 10.6182C19.1996 10.0819 19.1971 7.84012 19.0947 7.49541C18.9499 7.00804 18.4609 6.64587 17.9475 6.64587C17.5714 6.64587 17.2655 6.80375 16.9829 7.14376C15.914 8.43018 14.7083 9.23602 13.2624 9.63033L12.8245 9.74977L12.6352 9.54661L12.4459 9.34344L12.7108 7.77127C12.9944 6.08871 13.0262 5.65423 12.9018 5.16474C12.7309 4.49251 12.2459 3.80634 11.6727 3.42587C11.5254 3.32811 11.2244 3.18348 11.0039 3.10449L10.6029 2.96088H9.0542H7.50549L7.2545 3.09989C6.70354 3.40508 6.48343 4.08337 6.74977 4.65536C6.83344 4.83501 6.95959 4.97712 7.2538 5.22303C7.79538 5.67563 8.34649 6.26958 8.66585 6.74485C9.00971 7.25658 9.41636 8.10532 9.56241 8.61602C9.7598 9.30609 9.76126 9.27253 9.52472 9.47405L9.31635 9.65154L7.77736 9.38503C6.10076 9.09462 5.65605 9.0628 5.14131 9.19646C4.37095 9.39643 3.58472 10.0332 3.24259 10.7342C2.95397 11.3257 2.92276 11.578 2.939 13.1889C2.95252 14.5314 2.95815 14.6088 3.05468 14.7874C3.28807 15.2191 3.65019 15.4403 4.12747 15.4427C4.58251 15.4451 4.838 15.3093 5.18843 14.8788C6.08457 13.778 7.26492 12.9576 8.5145 12.5671C9.26966 12.331 9.24347 12.3311 9.45883 12.5644L9.64604 12.7672L9.3784 14.317C9.08541 16.0135 9.05509 16.4472 9.19293 16.9697C9.44799 17.9367 10.2333 18.7404 11.2365 19.0612C11.4492 19.1292 11.723 19.1472 12.7941 19.1639L14.0936 19.1841L14.1228 19.4496C14.1612 19.797 14.2674 20.3387 14.329 20.5002L14.3777 20.6282L13.9921 20.7451C12.9741 21.0539 12.242 21.1587 11.0722 21.163C10.0276 21.1669 9.4402 21.0975 8.53116 20.8632C5.1889 20.0014 2.50006 17.4827 1.43028 14.2115C0.382174 11.0067 0.949284 7.62959 2.99161 4.91367C3.38165 4.39499 4.21026 3.54245 4.69951 3.15644C6.78426 1.51167 9.44119 0.714409 11.9941 0.9676ZM10.5579 3.9484C11.1361 4.09806 11.5972 4.48683 11.8627 5.0485C12.0931 5.53625 12.0878 5.88616 11.8267 7.39583C11.7085 8.07984 11.6005 8.69303 11.5868 8.7585C11.5621 8.87681 11.5592 8.87747 11.0886 8.87236L10.6153 8.86719L10.465 8.37789C10.1146 7.23654 9.597 6.30389 8.83189 5.43497C8.56429 5.13109 8.37122 4.94825 7.74737 4.40799C7.55946 4.24523 7.52881 4.09965 7.65355 3.96187C7.72517 3.88274 7.83058 3.87603 9.00469 3.87603C9.99999 3.87603 10.3393 3.89185 10.5579 3.9484ZM18.1561 7.68787C18.2176 7.77568 18.2291 7.98274 18.2291 8.99959C18.2291 9.70833 18.2075 10.3097 18.1768 10.4557C18.0487 11.0637 17.6465 11.5794 17.0853 11.8551C16.5694 12.1086 16.2593 12.1032 14.5762 11.8114C13.8189 11.6801 13.1938 11.5726 13.187 11.5726C13.1802 11.5726 13.1928 11.4618 13.215 11.3263C13.2373 11.1908 13.2427 10.9728 13.2271 10.8419L13.1989 10.604L13.473 10.543C14.1679 10.3884 15.0771 9.97677 15.8277 9.47692C16.3954 9.09889 17.1742 8.38869 17.5791 7.87977C17.7697 7.64019 17.8405 7.58355 17.9489 7.58355C18.0343 7.58355 18.1096 7.62147 18.1561 7.68787ZM11.4201 9.86283C12.3217 10.1306 12.5907 11.3361 11.89 11.9691C11.6335 12.2009 11.4047 12.2888 11.0483 12.2927C10.6694 12.2967 10.3853 12.1708 10.1171 11.8798C9.9287 11.6754 9.78162 11.3144 9.78162 11.0564C9.78162 10.5721 10.1637 10.0412 10.6274 9.88108C10.9437 9.77192 11.1017 9.76826 11.4201 9.86283ZM7.45856 10.286C8.12967 10.3994 8.72174 10.5022 8.77435 10.5145C8.86324 10.5354 8.86953 10.5705 8.86469 11.0158L8.85948 11.4946L8.48751 11.598C7.40853 11.898 6.45518 12.4084 5.51976 13.187C5.16375 13.4832 4.90572 13.7534 4.361 14.4002C4.2325 14.5528 4.09199 14.5652 3.96223 14.4354C3.87306 14.3462 3.86837 14.279 3.86837 13.0843C3.86837 11.4346 3.93337 11.171 4.4726 10.633C4.89225 10.2143 5.45917 10.0007 6.00371 10.0561C6.13277 10.0692 6.78745 10.1727 7.45856 10.286ZM11.248 13.2352C11.4132 13.2139 11.4755 13.2227 11.4892 13.2695C12.0459 15.1663 12.7443 16.3119 14.024 17.4279L14.3007 17.6692L14.2405 17.953L14.1803 18.2368H13.0392C12.3803 18.2368 11.793 18.2147 11.6494 18.1845C10.6084 17.9655 9.91359 16.9829 10.0632 15.9414C10.1177 15.5616 10.4237 13.7501 10.4887 13.4219L10.5361 13.1829L10.7807 13.2234C10.9152 13.2457 11.1255 13.251 11.248 13.2352ZM20.0388 15.1867C22.1027 15.7127 23.4026 17.7819 22.974 19.8589C22.8018 20.6929 22.4333 21.353 21.8045 21.9538C20.2481 23.4408 17.8632 23.4377 16.2878 21.9468C15.7649 21.452 15.3704 20.7784 15.1732 20.0436C15.0332 19.5218 15.031 18.6014 15.1687 18.0916C15.5974 16.5041 16.8788 15.3403 18.4656 15.0972C18.8849 15.033 19.5941 15.0733 20.0388 15.1867ZM17.8222 16.0525C17.6428 16.1305 17.5721 16.2499 17.5721 16.4748C17.5721 16.6111 17.6711 16.7913 18.0909 17.4194C18.5706 18.1371 18.6086 18.2103 18.5954 18.3921C18.5813 18.5868 18.5792 18.5889 18.3845 18.6031C18.2026 18.6163 18.1294 18.5783 17.4117 18.0986C16.7636 17.6653 16.6061 17.5798 16.4572 17.5798C16.2316 17.5798 16.092 17.677 16.0247 17.8809C15.9299 18.1682 16.0331 18.3091 16.6257 18.7009C16.913 18.8909 17.1387 19.0614 17.1273 19.0799C17.1159 19.0983 16.8843 19.2594 16.6127 19.4377C16.043 19.8118 15.9338 19.9599 16.0245 20.2348C16.0543 20.3251 16.1324 20.4341 16.1979 20.477C16.4422 20.6371 16.5773 20.5887 17.3811 20.053C18.088 19.582 18.1493 19.5508 18.3697 19.5508H18.6046V19.7377C18.6046 19.8971 18.5286 20.039 18.0883 20.7028C17.648 21.3665 17.5721 21.5084 17.5721 21.6678C17.5721 21.9925 17.8896 22.2063 18.188 22.0827C18.2925 22.0394 18.4317 21.8743 18.688 21.4895C18.8833 21.1961 19.0578 20.9726 19.0758 20.9927C19.0938 21.0127 19.2574 21.2529 19.4393 21.5264C19.8052 22.0762 19.9433 22.1789 20.2127 22.1017C20.4084 22.0455 20.592 21.781 20.5571 21.6056C20.5431 21.5355 20.3093 21.1449 20.0375 20.7376C19.5828 20.0566 19.5432 19.9792 19.5432 19.774V19.5508H19.7663C19.9716 19.5508 20.0489 19.5905 20.73 20.0451C21.1372 20.3169 21.5278 20.5508 21.598 20.5647C21.7734 20.5997 22.0379 20.416 22.094 20.2203C22.1713 19.9509 22.0686 19.8128 21.5187 19.447C21.2453 19.265 21.0051 19.1014 20.985 19.0835C20.965 19.0655 21.1885 18.891 21.4818 18.6957C21.8666 18.4393 22.0317 18.3002 22.075 18.1957C22.1987 17.8972 21.9848 17.5798 21.6602 17.5798C21.5008 17.5798 21.3588 17.6557 20.6951 18.096C20.0314 18.5363 19.8894 18.6122 19.7301 18.6122H19.5432V18.3773C19.5432 18.157 19.5744 18.0957 20.0453 17.3888C20.581 16.5849 20.6294 16.4498 20.4694 16.2056C20.4264 16.14 20.3174 16.062 20.2271 16.0322C19.9522 15.9415 19.8042 16.0507 19.43 16.6204C19.2517 16.892 19.0906 17.1236 19.0722 17.135C19.0537 17.1464 18.8832 16.9206 18.6932 16.6333C18.4368 16.2453 18.3088 16.0946 18.1961 16.0475C18.0132 15.9711 18.0094 15.9711 17.8222 16.0525Z" fill="#003154"/>
</svg>
