<svg viewBox="0 0 20 24" fill="none" xmlns="http://www.w3.org/2000/svg">
<path fill-rule="evenodd" clip-rule="evenodd" d="M12.8345 0.0699906C11.8739 0.302431 11.1068 1.09077 10.9022 2.05583C10.8479 2.31221 10.8364 3.44249 10.8357 8.61843L10.8349 14.8712L10.5562 15.0605C9.62811 15.6908 8.93567 16.6709 8.64376 17.7675C8.48318 18.3708 8.46187 19.4081 8.5971 20.038C9.00143 21.9212 10.3764 23.395 12.1727 23.8705C12.5808 23.9786 12.74 23.9954 13.3931 23.9996C13.9725 24.0033 14.2288 23.9845 14.515 23.9174C15.5129 23.6835 16.2354 23.2725 16.9478 22.5335C18.5661 20.8548 18.8367 18.2421 17.5861 16.3723C17.255 15.8774 16.8481 15.4527 16.3572 15.0896L15.9995 14.8251L15.9871 8.40758L15.9747 1.99007L15.8692 1.71027C15.4037 0.476386 14.0899 -0.23375 12.8345 0.0699906ZM13.8846 1.0083C14.3763 1.15432 14.7908 1.53392 14.964 1.99664C15.0582 2.24847 15.0594 2.33479 15.062 8.69236C15.064 13.5551 15.0784 15.1724 15.1207 15.2942C15.165 15.4216 15.2506 15.4997 15.5288 15.6663C15.9523 15.92 16.6582 16.6137 16.8832 16.9974C17.2521 17.6267 17.418 18.2496 17.4178 19.0054C17.4176 20.0796 17.0402 21.061 16.332 21.8294C15.6208 22.6011 14.7252 23.0169 13.6512 23.0742C11.1214 23.2092 9.07578 20.9395 9.47641 18.4421C9.54696 18.0022 9.75996 17.4156 9.98945 17.0294C10.2572 16.5787 10.7674 16.0522 11.2431 15.7357C11.4583 15.5925 11.6656 15.4306 11.704 15.3758C11.7648 15.289 11.7737 14.4564 11.7737 8.83688C11.7737 2.70556 11.7778 2.38407 11.8604 2.11868C12.1344 1.23853 13.0214 0.751964 13.8846 1.0083ZM4.19307 1.46895C3.06701 1.65793 2.15659 2.14102 1.37243 2.96569C-0.457477 4.89008 -0.457477 7.82066 1.37243 9.74505C2.40414 10.83 3.81081 11.3876 5.26398 11.2875C7.39838 11.1405 9.18412 9.65502 9.7425 7.56198C9.84924 7.16197 9.86403 7.01477 9.86403 6.35537C9.86403 5.69598 9.84924 5.54878 9.7425 5.14876C9.16849 2.99718 7.32258 1.50693 5.13185 1.42657C4.78061 1.41371 4.42725 1.42967 4.19307 1.46895ZM5.90634 2.46288C6.27152 2.55587 6.89201 2.83665 7.20528 3.0507C7.97202 3.57463 8.57767 4.4344 8.8241 5.34872C8.96205 5.86068 8.9744 6.80054 8.84931 7.27068C8.51623 8.52253 7.74014 9.46168 6.6031 9.98895C5.98876 10.2738 5.65564 10.343 4.92063 10.3384C4.37806 10.335 4.22757 10.3166 3.87403 10.2103C2.70399 9.8585 1.83384 9.12405 1.33183 8.06446C1.05545 7.48115 0.963829 7.05551 0.963829 6.35537C0.963829 5.87664 0.985702 5.66424 1.0654 5.36966C1.49353 3.78745 2.76215 2.64289 4.37215 2.38618C4.7209 2.33061 5.54937 2.37201 5.90634 2.46288ZM17.208 2.41397C16.9399 2.5622 16.8973 2.91988 17.1211 3.14368L17.2583 3.28088H18.3438C19.5406 3.28088 19.6451 3.26037 19.7511 3.00455C19.8262 2.82323 19.7789 2.61722 19.6298 2.4771C19.5128 2.36708 19.4967 2.36544 18.4235 2.35441C17.5273 2.34521 17.3134 2.35572 17.208 2.41397ZM3.71566 3.34932C3.53626 3.42733 3.46552 3.54674 3.46552 3.77167C3.46552 3.90794 3.56452 4.08818 3.98443 4.71636C4.46424 5.4342 4.50221 5.50742 4.48902 5.68931C4.47499 5.88242 4.47133 5.88622 4.28695 5.89978C4.11717 5.91222 4.02485 5.86467 3.32278 5.40322C2.89573 5.12252 2.49638 4.8798 2.43527 4.86384C2.12007 4.78137 1.81004 5.14088 1.91697 5.4649C1.95856 5.59083 2.06975 5.69039 2.47084 5.96066C2.74684 6.14668 2.99093 6.3151 3.01322 6.33486C3.03556 6.35462 2.80955 6.5328 2.51098 6.73079C2.07182 7.022 1.95832 7.12061 1.91659 7.24711C1.8037 7.58906 2.12678 7.93519 2.46765 7.83742C2.54454 7.8154 2.92671 7.58381 3.31696 7.32278C3.98133 6.87846 4.04156 6.84823 4.26236 6.84823H4.49818V7.03702C4.49818 7.19919 4.42537 7.3347 3.98185 7.99823C3.55086 8.64303 3.46552 8.80013 3.46552 8.94902C3.46552 9.2866 3.73617 9.48727 4.05127 9.38325C4.19162 9.33692 4.2763 9.24309 4.55305 8.82717C4.7362 8.55196 4.90035 8.31075 4.9179 8.29108C4.93546 8.27146 5.1135 8.49803 5.3135 8.79464C5.6294 9.26299 5.70056 9.34086 5.85457 9.387C6.0902 9.4576 6.30776 9.35077 6.40567 9.11645C6.50087 8.8887 6.46951 8.81679 5.91061 7.98114C5.48455 7.34404 5.43695 7.25157 5.43695 7.06058V6.84823H5.66015C5.86508 6.84823 5.94281 6.88789 6.61066 7.33301C7.01067 7.59967 7.38881 7.83089 7.451 7.8469C7.61524 7.88914 7.86021 7.76931 7.94508 7.60526C8.108 7.29016 8.00694 7.13423 7.36463 6.70952C7.07892 6.5206 6.84511 6.36124 6.84511 6.35537C6.84511 6.3495 7.07892 6.19015 7.36463 6.00122C8.00694 5.57652 8.108 5.42059 7.94508 5.10549C7.86012 4.9412 7.61491 4.82151 7.451 4.86427C7.38881 4.88046 6.99339 5.12224 6.57226 5.40158C5.92366 5.83177 5.77829 5.90945 5.62175 5.90945H5.43695V5.67363C5.43695 5.45288 5.46718 5.39261 5.91061 4.7296C6.46951 3.89395 6.50087 3.82204 6.40567 3.59429C6.30823 3.36101 6.09001 3.25319 5.85677 3.32308C5.70568 3.36833 5.63151 3.44958 5.3159 3.91559C5.11467 4.21262 4.93565 4.43952 4.91804 4.4198C4.90044 4.40009 4.73658 4.15934 4.55394 3.88489C4.29747 3.49943 4.18758 3.37387 4.07136 3.33336C3.88905 3.26976 3.89957 3.26929 3.71566 3.34932ZM17.2465 4.29133C17.054 4.39174 16.9871 4.49758 16.9854 4.70439C16.9843 4.84155 17.0163 4.91646 17.1211 5.02123L17.2583 5.15843H17.8972C18.6274 5.15843 18.7328 5.12116 18.8193 4.8323C18.8882 4.60221 18.781 4.38094 18.5547 4.28636C18.329 4.19206 17.4303 4.19548 17.2465 4.29133ZM13.1657 5.72794C12.9437 5.85693 12.9472 5.77357 12.9472 11.0727C12.9472 15.0159 12.9349 16.0544 12.8885 16.0668C12.1479 16.2639 11.7149 16.4936 11.2805 16.9198C10.9408 17.2532 10.6908 17.6583 10.5176 18.156C10.4098 18.4658 10.3936 18.5864 10.3946 19.0758C10.3955 19.5583 10.4136 19.6934 10.5209 20.0182C10.9107 21.1982 11.9672 22.0272 13.2134 22.1312C14.4097 22.2309 15.6255 21.5328 16.1639 20.437C16.3886 19.9798 16.471 19.621 16.4724 19.0944C16.4749 18.2141 16.2059 17.5664 15.5774 16.9392C15.0866 16.4495 14.6722 16.2202 14.015 16.075L13.8859 16.0464V11.005V5.96357L13.7644 5.81919C13.664 5.69982 13.609 5.67499 13.4476 5.67617C13.3401 5.67697 13.2133 5.70025 13.1657 5.72794ZM17.1054 6.28858C16.9302 6.49675 16.9388 6.7405 17.1277 6.92159L17.2715 7.05945L18.266 7.07414C19.4265 7.09123 19.5843 7.06142 19.7254 6.79829C19.832 6.59936 19.8032 6.42447 19.6362 6.25746L19.5229 6.14415H18.3749H17.2269L17.1054 6.28858ZM17.1211 8.1589C16.8746 8.40537 16.9637 8.78985 17.2965 8.9164C17.4812 8.98662 18.3708 8.97061 18.5547 8.89377C18.781 8.79919 18.8882 8.57792 18.8193 8.34783C18.7328 8.05897 18.6274 8.0217 17.8972 8.0217H17.2583L17.1211 8.1589ZM17.1211 10.0364C16.965 10.1925 16.9338 10.464 17.0524 10.6334C17.1854 10.8232 17.3336 10.8439 18.4512 10.8288C19.4932 10.8148 19.5132 10.8127 19.6298 10.703C19.695 10.6417 19.7615 10.5318 19.7775 10.4588C19.8155 10.2859 19.6906 10.0224 19.5376 9.95271C19.4607 9.91765 19.0477 9.89925 18.3393 9.89925H17.2583L17.1211 10.0364ZM14.0025 17.0424C14.3253 17.1252 14.6459 17.317 14.9194 17.5909C16.1398 18.8135 15.4646 20.8794 13.7484 21.1737C13.1163 21.2821 12.4113 21.0492 11.9375 20.5753C11.1454 19.7832 11.1076 18.4835 11.8534 17.6859C12.4495 17.0484 13.1767 16.8306 14.0025 17.0424Z" fill="#003154"/>
</svg>
