<svg viewBox="0 0 24 24" fill="none" xmlns="http://www.w3.org/2000/svg">
<path fill-rule="evenodd" clip-rule="evenodd" d="M10.1335 0.0593128C9.97306 0.136583 9.30405 1.1789 8.8995 1.982C8.43358 2.90685 8.36752 3.49897 8.66323 4.09963C8.85493 4.48907 9.17498 4.80711 9.56129 4.99215C9.84278 5.12698 9.9041 5.1382 10.3588 5.1382C10.7942 5.1382 10.8824 5.1237 11.1177 5.0134C11.7623 4.71122 12.2355 3.99942 12.2355 3.33195C12.2355 2.86993 11.8267 1.92697 11.1645 0.861192C10.6533 0.0384353 10.4711 -0.103249 10.1335 0.0593128ZM10.6969 1.9128C11.0527 2.53622 11.2972 3.11314 11.2972 3.32956C11.2972 3.51309 11.1836 3.78937 11.0486 3.93406C10.7368 4.26829 10.1472 4.32468 9.80933 4.05257C9.36931 3.69817 9.3169 3.29976 9.62481 2.64872C9.8485 2.17562 10.3071 1.3615 10.3498 1.36155C10.3677 1.36159 10.5239 1.60963 10.6969 1.9128ZM17.4726 3.34147C17.1653 3.45327 15.9651 5.58436 15.8246 6.26759C15.5717 7.49701 16.6809 8.64766 17.9258 8.44719C18.9857 8.27651 19.6934 7.28645 19.4838 6.26759C19.3967 5.84409 18.8482 4.73524 18.3425 3.96038C18.0449 3.50436 17.9415 3.38191 17.8178 3.33875C17.6405 3.27696 17.65 3.27687 17.4726 3.34147ZM5.70193 3.80889C5.55705 3.86181 5.02634 4.59857 4.08541 6.05305C1.52213 10.0155 0.108099 13.0076 0.00586973 14.6855C-0.0265958 15.2191 0.0782603 16.0141 0.254897 16.5733C0.827688 18.3864 2.21883 19.8065 4.01803 20.4147C4.66758 20.6342 5.14058 20.7063 5.95794 20.7104L6.69433 20.7141L6.9312 21.1083C7.26149 21.6578 7.49156 21.9438 7.96762 22.3969C8.78915 23.1786 9.7291 23.6685 10.8749 23.9122C11.4201 24.0281 12.5763 24.0295 13.1109 23.9149C14.3051 23.659 15.221 23.1762 16.084 22.3478L16.538 21.9121L16.7922 22.0497C16.9319 22.1254 17.2675 22.2613 17.5379 22.3517C18.9981 22.8397 20.5908 22.6087 21.8721 21.7229C22.8291 21.0613 23.5472 20.0331 23.8552 18.8834C23.9663 18.4683 23.9805 18.3302 23.9805 17.6646C23.9805 16.9991 23.9663 16.8609 23.8552 16.4459C23.3847 14.6899 22.0284 13.3342 20.2804 12.8731C19.877 12.7666 19.7119 12.749 19.0851 12.7453C18.465 12.7416 18.2963 12.757 17.9388 12.8504C17.4521 12.9777 16.8903 13.2059 16.5526 13.4137C16.4223 13.4939 16.3074 13.5595 16.2971 13.5595C16.2869 13.5595 16.1583 13.3345 16.0114 13.0594C15.645 12.3733 15.048 11.3568 14.4036 10.3224C13.6557 9.12165 12.3836 7.2364 12.2654 7.15368C12.2117 7.11601 12.0852 7.08519 11.9843 7.08519C11.7321 7.08519 11.6597 7.17132 10.7133 8.59671L9.91845 9.79409L9.40937 8.90387C8.75547 7.76025 7.91118 6.4135 6.96381 5.0028C6.35884 4.10197 6.18121 3.86965 6.05806 3.81818C5.88316 3.74513 5.87706 3.74495 5.70193 3.80889ZM18.0512 5.3024C18.6037 6.29114 18.6889 6.64625 18.469 7.04465C18.3431 7.27271 18.1253 7.43743 17.8526 7.51085C17.2277 7.67914 16.5769 7.03644 16.7425 6.41448C16.8086 6.16607 17.1357 5.48645 17.423 5.00064C17.6797 4.56648 17.6252 4.54026 18.0512 5.3024ZM6.5473 6.06478C7.58413 7.64123 8.66806 9.43603 9.20581 10.4668L9.34238 10.7284L9.06009 11.194C7.81026 13.2553 6.87031 15.1472 6.45098 16.4456C6.17329 17.3053 6.12051 17.655 6.15063 18.4361C6.16507 18.8117 6.21054 19.254 6.25159 19.419C6.29259 19.584 6.31333 19.7318 6.29756 19.7474C6.23854 19.806 5.30028 19.7642 4.91665 19.6858C3.9858 19.4956 3.19636 19.0849 2.50234 18.4298C1.79133 17.7586 1.32823 16.9835 1.08399 16.0557C0.986309 15.6846 0.963039 15.4832 0.958301 14.967C0.953187 14.408 0.967684 14.2792 1.08202 13.8698C1.5569 12.169 3.02225 9.38517 5.11633 6.20552C5.52843 5.57976 5.87148 5.06782 5.87861 5.06782C5.88574 5.06782 6.18666 5.51647 6.5473 6.06478ZM12.6464 9.3254C13.7189 10.9559 14.4184 12.1063 15.1484 13.4396L15.5579 14.1876L15.3159 14.4554C14.8334 14.9894 14.4046 15.856 14.2222 16.666C14.1044 17.1892 14.1148 18.2089 14.2433 18.7299C14.4697 19.6484 14.8464 20.3656 15.4314 20.992L15.7686 21.353L15.5385 21.5892C14.5601 22.5932 13.1254 23.1486 11.7194 23.0674C10.4939 22.9967 9.41055 22.5093 8.52478 21.6303C7.7853 20.8964 7.35349 20.0908 7.14312 19.0526C7.02696 18.4793 7.0666 17.6191 7.23526 17.0547C7.64634 15.6792 8.77738 13.4202 10.2302 11.073C10.8351 10.0957 11.9588 8.39882 12.001 8.39882C12.0207 8.39882 12.3112 8.81576 12.6464 9.3254ZM20 13.7692C21.0038 14.0333 21.8352 14.6205 22.3944 15.4604C23.7608 17.5127 22.9752 20.2507 20.7199 21.2964C20.1129 21.5778 19.7742 21.648 19.0382 21.6449C18.4904 21.6426 18.3481 21.6251 17.9849 21.5158C16.5905 21.0959 15.5511 20.0323 15.1845 18.6499C15.0436 18.1184 15.0442 17.2069 15.1857 16.6794C15.6069 15.1104 16.8315 13.9956 18.4593 13.6993C18.7793 13.641 19.6655 13.6813 20 13.7692ZM17.8079 14.6648C17.6471 14.752 17.5838 14.8688 17.5838 15.0782C17.5838 15.2089 17.6894 15.4017 18.0999 16.0205C18.5401 16.684 18.616 16.8259 18.616 16.9852V17.172H18.3812C18.161 17.172 18.0996 17.1409 17.4003 16.6749C16.6032 16.1438 16.4503 16.0887 16.2097 16.2464C16.1444 16.2892 16.0665 16.3981 16.0367 16.4883C15.9461 16.7631 16.0552 16.9111 16.6247 17.2851C16.8963 17.4634 17.1289 17.6263 17.1418 17.6471C17.1546 17.6678 16.9226 17.8457 16.6262 18.0422C16.1905 18.3312 16.0773 18.4296 16.0357 18.5559C15.9726 18.7469 16.0651 19.0109 16.225 19.0965C16.4746 19.23 16.6172 19.1751 17.4408 18.6279C18.1509 18.1562 18.2475 18.1055 18.411 18.1189C18.5878 18.1334 18.5929 18.1388 18.6068 18.3304C18.62 18.5122 18.5821 18.5853 18.1025 19.3028C17.6828 19.9307 17.5838 20.1108 17.5838 20.247C17.5838 20.4773 17.6556 20.5924 17.8497 20.6735C18.1514 20.7996 18.2886 20.7097 18.6708 20.1352C18.8539 19.8601 19.02 19.617 19.04 19.5949C19.06 19.5728 19.2298 19.7839 19.4174 20.0641C19.605 20.3442 19.7918 20.5988 19.8324 20.6298C20.0593 20.8033 20.3935 20.7094 20.5241 20.4355C20.6278 20.2181 20.5893 20.1294 20.0277 19.2896C19.5845 18.6269 19.5543 18.5667 19.5543 18.346V18.1103H19.739C19.8955 18.1103 20.0408 18.188 20.689 18.618C21.11 18.8971 21.5052 19.1388 21.5673 19.155C21.7312 19.1977 21.9762 19.0781 22.0612 18.9139C22.2241 18.5988 22.1231 18.4432 21.4792 18.0174C21.1927 17.8279 20.9748 17.658 20.9952 17.6397C21.0155 17.6215 21.2558 17.4577 21.5292 17.2758C21.8863 17.0382 22.0433 16.904 22.0868 16.7989C22.1661 16.6076 22.1045 16.3912 21.9347 16.2644C21.6953 16.0856 21.556 16.1337 20.7457 16.6746C20.0599 17.1323 19.9826 17.172 19.7774 17.172H19.5543V16.9598C19.5543 16.7689 19.6019 16.6764 20.0277 16.0397C20.5893 15.1999 20.6278 15.1112 20.5241 14.8938C20.4172 14.6696 20.1994 14.5662 19.9754 14.6334C19.8256 14.6782 19.7546 14.7568 19.4591 15.2035C19.2707 15.4885 19.1016 15.731 19.0833 15.7423C19.0649 15.7536 18.8956 15.5296 18.7071 15.2444C18.2851 14.6062 18.1163 14.4974 17.8079 14.6648Z" fill="#003154"/>
</svg>
