<svg viewBox="0 0 25 24" fill="none" xmlns="http://www.w3.org/2000/svg">
<path fill-rule="evenodd" clip-rule="evenodd" d="M10.8559 0.0287115C7.19226 0.40451 3.95515 2.37056 1.93442 5.44716C-1.08609 10.0459 -0.517772 16.3004 3.2786 20.2403C3.61934 20.5939 3.74766 20.6625 3.96834 20.6092C4.14631 20.5662 5.93608 18.772 5.96053 18.6121C5.99376 18.3948 5.91031 18.2308 5.59755 17.8993C5.28131 17.5641 4.73101 16.8535 4.73101 16.7803C4.73101 16.7582 4.93109 16.6224 5.17566 16.4785C5.42023 16.3346 5.64199 16.1763 5.66846 16.1268C5.76402 15.9483 5.72577 15.7041 5.57943 15.5578C5.38489 15.3632 5.20462 15.3759 4.80066 15.6127C4.17034 15.982 4.24464 15.9814 4.07361 15.6191C3.71569 14.861 3.39279 13.6503 3.33675 12.8563L3.30962 12.4719L3.88367 12.4561C4.44593 12.4406 4.46006 12.4376 4.57092 12.3086C4.64855 12.2183 4.68408 12.1196 4.68408 11.9944C4.68408 11.8692 4.64855 11.7705 4.57092 11.6802C4.46006 11.5513 4.44593 11.5482 3.88367 11.5327L3.30962 11.5169L3.33675 11.1325C3.39321 10.3329 3.70532 9.16712 4.06432 8.4152L4.23821 8.05095L4.68408 8.30932C5.21194 8.61518 5.37334 8.6371 5.57943 8.43106C5.72577 8.28468 5.76402 8.04048 5.66846 7.86199C5.64199 7.81252 5.42023 7.65426 5.17566 7.51032C4.93109 7.36637 4.73101 7.23641 4.73101 7.22144C4.73101 7.11401 5.37128 6.33223 5.85742 5.8461C6.34356 5.35996 7.12533 4.71969 7.23276 4.71969C7.24774 4.71969 7.3777 4.91976 7.52164 5.16434C7.66559 5.40891 7.82385 5.63067 7.87331 5.65714C8.0518 5.7527 8.296 5.71445 8.44239 5.56811C8.64842 5.36202 8.62651 5.20062 8.32064 4.67275L8.06227 4.22688L8.42652 4.05299C9.17845 3.694 10.3442 3.38189 11.1438 3.32543L11.5282 3.2983L11.544 3.87235C11.5595 4.43461 11.5626 4.44874 11.6916 4.5596C11.8701 4.71307 12.1413 4.71307 12.3199 4.5596C12.4489 4.44874 12.4519 4.43461 12.4674 3.87235L12.4832 3.2983L12.8676 3.32543C13.6672 3.38189 14.833 3.694 15.5849 4.05299L15.9492 4.22688L15.6908 4.67275C15.385 5.20062 15.363 5.36202 15.5691 5.56811C15.7155 5.71445 15.9597 5.7527 16.1381 5.65714C16.1876 5.63067 16.3459 5.40891 16.4898 5.16434C16.6338 4.91976 16.7637 4.71969 16.7787 4.71969C16.8861 4.71969 17.6679 5.35996 18.154 5.8461C18.6402 6.33223 19.2805 7.11401 19.2805 7.22144C19.2805 7.23641 19.0804 7.36637 18.8358 7.51032C18.5912 7.65426 18.3695 7.81252 18.343 7.86199C18.2474 8.04048 18.2857 8.28468 18.432 8.43106C18.6374 8.63644 18.7992 8.61481 19.3274 8.31133L19.7733 8.05512L19.9471 8.41731C20.3048 9.16205 20.6182 10.3317 20.6747 11.1325L20.7018 11.5169L20.1278 11.5327C19.5655 11.5482 19.5514 11.5513 19.4405 11.6802C19.2871 11.8588 19.2871 12.13 19.4405 12.3086C19.5514 12.4376 19.5655 12.4406 20.1278 12.4561L20.7018 12.4719L20.6747 12.8563C20.6457 13.2679 20.4713 14.2 20.4121 14.2602C20.3924 14.2802 20.23 14.2608 20.0513 14.2171C19.6181 14.1112 18.5439 14.1099 18.0793 14.2147C17.0656 14.4433 16.2121 14.9192 15.5241 15.6393C14.9966 16.1914 14.6848 16.6837 14.443 17.3462C13.9144 18.7946 14.0589 20.2998 14.8546 21.6306C15.1355 22.1006 15.7887 22.7935 16.2541 23.1153C18.7396 24.8334 22.1496 23.9604 23.4857 21.2638C23.6309 20.9709 23.7953 20.5446 23.866 20.2782C23.9763 19.8624 23.9903 19.7233 23.9894 19.0579C23.9884 18.3973 23.9733 18.2505 23.864 17.8377C23.7922 17.5669 23.6293 17.1461 23.479 16.8431L23.2183 16.3178L23.3642 15.9044C24.3493 13.1143 24.2014 9.80603 22.9695 7.07524C21.9199 4.74827 20.1137 2.77363 17.8758 1.50618C16.6692 0.822876 15.1454 0.310267 13.6719 0.0921189C13.0979 0.00712196 11.432 -0.030378 10.8559 0.0287115ZM13.6249 1.03427C15.9998 1.40054 18.121 2.47649 19.8223 4.17779C20.707 5.06249 21.3515 5.95278 21.9107 7.06271C22.4321 8.0976 22.7892 9.23001 22.9702 10.4221C23.088 11.1979 23.0895 12.7871 22.9731 13.5432C22.8829 14.1288 22.7577 14.6975 22.6081 15.2009L22.513 15.521L22.3048 15.329C22.1163 15.1553 21.4624 14.7007 21.3443 14.6614C21.3138 14.6512 21.3315 14.5035 21.3923 14.259C21.8578 12.3887 21.7096 10.2769 20.9845 8.45092C19.9401 5.82033 17.7391 3.73032 15.0834 2.84717C12.6361 2.03339 10.068 2.20343 7.75823 3.33223C5.44698 4.46174 3.66867 6.49472 2.84996 8.94348C1.8039 12.0722 2.43459 15.5322 4.51704 18.0891L4.83652 18.4814L4.35028 18.9694C4.08281 19.2377 3.84777 19.4519 3.82791 19.4453C3.74399 19.4173 3.09791 18.5931 2.75257 18.0736C1.87974 16.7606 1.28059 15.1825 1.03878 13.5598C0.923515 12.7859 0.924782 11.1485 1.04132 10.3987C1.70163 6.14938 4.58265 2.77053 8.68686 1.43198C9.38561 1.20407 10.0669 1.06998 11.1609 0.945092C11.511 0.905104 13.1789 0.965508 13.6249 1.03427ZM11.6934 5.76997L11.5637 5.88162L11.1108 9.2548L10.658 12.628L10.358 12.9331C9.87921 13.42 9.65905 13.9374 9.65905 14.5758C9.65905 15.6827 10.4228 16.6356 11.5039 16.8776C11.8464 16.9542 12.4782 16.9136 12.8115 16.7935C13.7206 16.4658 14.3524 15.5566 14.3524 14.5758C14.3524 13.9374 14.1322 13.42 13.6535 12.9331L13.3535 12.628L12.9006 9.2548L12.4478 5.88162L12.318 5.76997C12.2295 5.69384 12.1302 5.65836 12.0057 5.65836C11.8812 5.65836 11.782 5.69384 11.6934 5.76997ZM12.1852 10.9971C12.2684 11.636 12.3361 12.1798 12.3354 12.2056C12.3347 12.2323 12.1927 12.2525 12.0057 12.2525C11.8187 12.2525 11.6767 12.2323 11.6761 12.2056C11.6726 12.0619 11.9823 9.83546 12.0057 9.83546C12.0212 9.83546 12.1019 10.3582 12.1852 10.9971ZM12.6364 13.3285C13.2537 13.6306 13.5467 14.3293 13.3457 15.0204C13.2424 15.3758 12.8507 15.7865 12.5019 15.9051C11.9523 16.092 11.4213 15.9694 11.0126 15.561C10.7208 15.2696 10.5975 14.9775 10.598 14.579C10.5993 13.5364 11.6916 12.8663 12.6364 13.3285ZM20.0577 15.1863C22.1218 15.7124 23.4217 17.7817 22.993 19.8589C22.8209 20.6928 22.4524 21.353 21.8235 21.9538C20.267 23.4409 17.8819 23.4379 16.3064 21.9468C15.7835 21.452 15.389 20.7784 15.1918 20.0435C15.0517 19.5217 15.0496 18.6012 15.1873 18.0914C15.616 16.5038 16.8974 15.3399 18.4844 15.0968C18.9038 15.0326 19.6129 15.0729 20.0577 15.1863ZM17.841 16.0522C17.6616 16.1302 17.5908 16.2496 17.5908 16.4745C17.5908 16.6108 17.6898 16.791 18.1097 17.4191C18.5894 18.1369 18.6274 18.2101 18.6142 18.3919C18.6001 18.5867 18.598 18.5887 18.4033 18.6029C18.2214 18.6161 18.1482 18.5781 17.4304 18.0984C16.7823 17.6651 16.6248 17.5795 16.4759 17.5795C16.2503 17.5795 16.1106 17.6768 16.0433 17.8807C15.9485 18.168 16.0517 18.3089 16.6443 18.7007C16.9317 18.8907 17.1574 19.0613 17.146 19.0797C17.1346 19.0982 16.903 19.2592 16.6314 19.4376C16.0616 19.8117 15.9524 19.9598 16.0432 20.2347C16.073 20.325 16.151 20.434 16.2166 20.477C16.4608 20.637 16.5959 20.5886 17.3999 20.0529C18.1068 19.5819 18.1681 19.5507 18.3885 19.5507H18.6234V19.7376C18.6234 19.897 18.5474 20.0389 18.1071 20.7027C17.6667 21.3665 17.5908 21.5084 17.5908 21.6679C17.5908 21.9926 17.9083 22.2064 18.2068 22.0827C18.3113 22.0394 18.4505 21.8743 18.7068 21.4895C18.9022 21.1961 19.0767 20.9726 19.0946 20.9927C19.1126 21.0127 19.2762 21.2529 19.4582 21.5264C19.824 22.0763 19.9622 22.179 20.2316 22.1017C20.4273 22.0456 20.6109 21.7811 20.576 21.6056C20.5621 21.5355 20.3282 21.1449 20.0564 20.7376C19.6017 20.0565 19.5621 19.9791 19.5621 19.7739V19.5507H19.7852C19.9905 19.5507 20.0678 19.5904 20.7489 20.045C21.1562 20.3169 21.5468 20.5507 21.617 20.5647C21.7924 20.5996 22.0569 20.416 22.113 20.2202C22.1903 19.9508 22.0876 19.8127 21.5377 19.4469C21.2642 19.2649 21.024 19.1013 21.004 19.0833C20.9839 19.0653 21.2075 18.8908 21.5008 18.6955C21.8856 18.4392 22.0508 18.3 22.094 18.1955C22.2177 17.897 22.0039 17.5795 21.6792 17.5795C21.5198 17.5795 21.3778 17.6554 20.714 18.0958C20.0503 18.5361 19.9083 18.6121 19.7489 18.6121H19.5621V18.3772C19.5621 18.1568 19.5932 18.0955 20.0642 17.3885C20.5999 16.5846 20.6483 16.4495 20.4883 16.2053C20.4453 16.1397 20.3363 16.0616 20.246 16.0318C19.9711 15.9411 19.8231 16.0503 19.4489 16.6201C19.2705 16.8917 19.1095 17.1233 19.091 17.1347C19.0726 17.1461 18.902 16.9203 18.712 16.633C18.4555 16.245 18.3276 16.0943 18.2149 16.0472C18.032 15.9707 18.0281 15.9708 17.841 16.0522Z" fill="#003154"/>
</svg>
